<svg width="547" height="175" viewBox="0 0 547 175" fill="none" xmlns="http://www.w3.org/2000/svg">
<path d="M166.335 97.241C166.335 91.7965 161.524 87.3829 155.59 87.3829H152.975C147.041 87.3829 142.23 91.7966 142.23 97.241V134.702C142.23 140.146 147.041 144.56 152.975 144.56H155.59C161.524 144.56 166.335 140.146 166.335 134.702V97.241ZM191.061 30.2061C196.995 30.2061 201.805 34.6197 201.805 40.0641V134.702C201.805 140.146 196.995 144.56 191.061 144.56H188.445C182.511 144.56 177.701 140.146 177.701 134.702V40.0641C177.701 34.6197 182.511 30.2061 188.445 30.2061H191.061ZM226.335 30.2061C232.269 30.2061 237.079 34.6197 237.079 40.0641V77.5249C237.079 82.9693 232.269 87.3829 226.335 87.3829H223.916C217.982 87.3829 213.171 82.9693 213.171 77.5249V40.0641C213.171 34.6197 217.982 30.2061 223.916 30.2061H226.335Z" fill="#00B5E2"/>
<path d="M248.135 97.241C248.135 91.7966 252.945 87.3829 258.879 87.3829H261.494C267.428 87.3829 272.239 91.7965 272.239 97.241V134.702C272.239 140.146 267.428 144.56 261.494 144.56H258.879C252.945 144.56 248.135 140.146 248.135 134.702V97.241Z" fill="#00B5E2"/>
<path d="M283.978 40.0641C283.978 34.6197 288.788 30.2061 294.722 30.2061H297.337C303.271 30.2061 308.082 34.6197 308.082 40.0641L308.082 134.702C308.082 140.146 303.271 144.56 297.337 144.56H294.722C288.788 144.56 283.978 140.146 283.978 134.702L283.978 40.0641Z" fill="#00B5E2"/>
<path d="M109.076 34.8887V145.134H86.0246V34.8887H109.076ZM37.4165 34.8887V145.134H14.3653V34.8887H37.4165ZM98.0513 80.156V98.6972H25.8909V80.156H98.0513Z" fill="#112148"/>
<path d="M424.765 114.574C422.649 121.701 419.309 127.658 414.743 132.447C410.177 137.235 404.776 140.799 398.54 143.137C392.304 145.476 385.456 146.645 377.995 146.645C367.081 146.645 357.616 144.362 349.598 139.796C341.692 135.231 335.567 128.716 331.224 120.253C326.992 111.79 324.876 101.656 324.876 89.8521C324.876 78.048 326.992 67.9144 331.224 59.4511C335.567 50.9879 341.692 44.4734 349.598 39.9077C357.616 35.342 366.97 33.0591 377.66 33.0591C385.233 33.0591 392.081 34.117 398.206 36.2329C404.331 38.2373 409.509 41.3554 413.741 45.587C418.084 49.8186 421.257 55.1638 423.262 61.6226L402.382 70.4757C400.489 63.7941 397.594 59.0614 393.696 56.2774C389.799 53.3821 384.787 51.9344 378.663 51.9344C372.649 51.9344 367.36 53.3821 362.794 56.2774C358.34 59.1728 354.888 63.4601 352.438 69.1393C349.988 74.7073 348.763 81.6115 348.763 89.8521C348.763 97.9812 349.876 104.885 352.104 110.565C354.442 116.244 357.839 120.531 362.293 123.427C366.747 126.322 372.204 127.77 378.663 127.77C384.676 127.77 389.854 126.155 394.197 122.926C398.652 119.696 401.77 114.796 403.551 108.226L424.765 114.574ZM539.456 34.7295L489.011 92.0236L487.173 90.1861L459.612 121.422L456.104 100.041L512.73 34.7295H539.456ZM467.463 34.7295V144.975H444.412V34.7295H467.463ZM495.358 72.8142L540.793 144.975H514.401L477.652 85.6761L495.358 72.8142Z" fill="#112148"/>
</svg>
