<svg width="217" height="213" viewBox="0 0 217 213" fill="none" xmlns="http://www.w3.org/2000/svg">
<path d="M207.242 14.0969L207.374 106.097C207.374 106.097 207.374 106.097 207.374 106.097V106.097C207.374 106.097 207.374 106.097 207.374 106.097L207.506 198.097" stroke="#00B5E2" stroke-width="2.83779" stroke-linecap="round" stroke-linejoin="round"/>
<circle cx="207.507" cy="199.515" r="7.09448" transform="rotate(-90.0822 207.507 199.515)" fill="white" stroke="#00B5E2" stroke-width="2.83779"/>
<circle cx="207.239" cy="12.6775" r="7.09448" transform="rotate(-90.0822 207.239 12.6775)" fill="white" stroke="#00B5E2" stroke-width="2.83779"/>
<path d="M8.99981 14.381L9.13174 106.381C9.13174 106.381 9.13174 106.381 9.13174 106.381V106.381C9.13174 106.381 9.13174 106.381 9.13174 106.381L9.26367 198.381" stroke="#00B5E2" stroke-width="2.83779" stroke-linecap="round" stroke-linejoin="round"/>
<circle cx="8.51338" cy="8.51338" r="7.09448" transform="matrix(-0.00143405 -0.999999 -0.999999 0.00143405 17.791 208.301)" fill="white" stroke="#00B5E2" stroke-width="2.83779"/>
<circle cx="8.51338" cy="8.51338" r="7.09448" transform="matrix(-0.00143405 -0.999999 -0.999999 0.00143405 17.5215 21.4639)" fill="white" stroke="#00B5E2" stroke-width="2.83779"/>
<path d="M140.036 198.108L140.059 106.108C140.059 106.108 140.059 106.108 140.059 106.108V106.108C140.059 106.108 140.059 106.108 140.059 106.108L140.082 14.1084" stroke="#39F19B" stroke-width="3.99089" stroke-linecap="round" stroke-linejoin="round"/>
<circle cx="11.9727" cy="11.9727" r="9.97723" transform="matrix(-0.000247964 1 1 0.000247964 128.113 0.136719)" fill="white" stroke="#39F19B" stroke-width="3.99089"/>
<circle cx="11.9727" cy="11.9727" r="9.97723" transform="matrix(-0.000247964 1 1 0.000247964 128.066 188.127)" fill="white" stroke="#39F19B" stroke-width="3.99089"/>
<path d="M75.3665 198.093L75.3893 106.093C75.3893 106.093 75.3893 106.093 75.3893 106.093V106.093C75.3893 106.093 75.3893 106.093 75.3893 106.093L75.4121 14.0928" stroke="#39F19B" stroke-width="3.99089" stroke-linecap="round" stroke-linejoin="round"/>
<circle cx="11.9727" cy="11.9727" r="9.97723" transform="matrix(-0.000247964 1 1 0.000247964 63.4434 0.121094)" fill="white" stroke="#39F19B" stroke-width="3.99089"/>
<circle cx="11.9727" cy="11.9727" r="9.97723" transform="matrix(-0.000247964 1 1 0.000247964 63.3965 188.111)" fill="white" stroke="#39F19B" stroke-width="3.99089"/>
</svg>
