<svg width="43" height="40" viewBox="0 0 43 40" fill="none" xmlns="http://www.w3.org/2000/svg">
<g id="Group 1042">
<g id="Group 952">
<g id="Group 941">
<rect id="Branch" x="14.3633" y="11.2969" width="0.358465" height="7.88" rx="0.179232" transform="rotate(-90 14.3633 11.2969)" fill="#00B5E2"/>
</g>
</g>
<g id="Group 962">
<g id="Group 941_2">
<rect id="Branch_2" x="8.80078" y="19.8008" width="0.358465" height="8.69039" rx="0.179232" transform="rotate(-90 8.80078 19.8008)" fill="#00B5E2"/>
</g>
</g>
<g id="Group 956">
<g id="Group 941_3">
<rect id="Branch_3" x="16.2168" y="15.4795" width="0.358465" height="3.59236" rx="0.179232" transform="rotate(-90 16.2168 15.4795)" fill="#00B5E2"/>
</g>
</g>
<g id="Group 955">
<g id="Group 941_4">
<rect id="Branch_4" width="0.351743" height="2.32974" rx="0.175871" transform="matrix(0.781367 -0.624072 0.600621 0.799534 29.3066 14.5039)" fill="#00B5E2"/>
</g>
</g>
<g id="Group 953">
<g id="Group 941_5">
<rect id="Branch_5" width="0.351757" height="8.46886" rx="0.175878" transform="matrix(0.780547 -0.625098 0.601655 0.798756 21.8691 11.0889)" fill="#00B5E2"/>
</g>
</g>
<g id="Group 957">
<g id="Group 941_6">
<rect id="Branch_6" width="0.35194" height="8.96391" rx="0.17597" transform="matrix(0.769522 -0.63862 0.615306 0.788288 19.4043 15.2754)" fill="#00B5E2"/>
</g>
</g>
<g id="Group 963">
<g id="Group 941_7">
<rect id="Branch_7" width="0.3516" height="3.32775" rx="0.1758" transform="matrix(0.789834 -0.613321 0.589801 0.807549 17.1445 19.6377)" fill="#00B5E2"/>
</g>
</g>
<g id="Group 969">
<g id="Group 941_8">
<rect id="Branch_8" width="0.355024" height="2.68307" rx="0.177512" transform="matrix(0.55518 0.83173 -0.815504 0.578752 30.8047 23.0068)" fill="#00B5E2"/>
</g>
</g>
<g id="Group 991">
<g id="Group 977">
<rect id="Branch_9" x="15.5176" y="6.63672" width="0.358465" height="6.72118" rx="0.179232" transform="rotate(-90 15.5176 6.63672)" fill="#00B5E2"/>
</g>
<g id="Group 948">
<g id="Group 941_9">
<rect id="Branch_10" width="0.351565" height="2.14396" rx="0.175782" transform="matrix(0.791949 -0.610587 0.587053 0.809548 21.8438 6.42773)" fill="#00B5E2"/>
</g>
</g>
<g id="Group 949">
<g id="Group 941_10">
<rect id="Branch_11" width="0.355579" height="3.36616" rx="0.177789" transform="matrix(0.50781 0.861469 -0.847341 0.531049 15.7363 6.20898)" fill="#00B5E2"/>
</g>
</g>
</g>
<g id="Group 954">
<g id="Group 941_11">
<rect id="Branch_12" width="0.354976" height="7.36013" rx="0.177488" transform="matrix(0.559044 0.829138 -0.812743 0.582623 14.541 10.8691)" fill="#00B5E2"/>
</g>
</g>
<g id="Group 958">
<g id="Group 941_12">
<rect id="Branch_13" x="30.5859" y="15.957" width="0.347647" height="7.40827" rx="0.173824" fill="#00B5E2"/>
</g>
</g>
<g id="Group 959">
<g id="Group 941_13">
<rect id="Branch_14" x="24.791" y="21.9316" width="0.347647" height="2.27028" rx="0.173824" fill="#00B5E2"/>
</g>
</g>
<g id="Group 992">
<g id="Group 965">
<g id="Group 941_14">
<rect id="Branch_15" x="6.24219" y="23.3652" width="0.358465" height="9.38648" rx="0.179232" transform="rotate(-90 6.24219 23.3652)" fill="#00B5E2"/>
</g>
</g>
<g id="Group 967">
<g id="Group 941_15">
<rect id="Branch_16" x="17.7227" y="26.7109" width="0.358465" height="6.25765" rx="0.179232" transform="rotate(-90 17.7227 26.7109)" fill="#00B5E2"/>
</g>
</g>
<g id="Group 966">
<g id="Group 941_16">
<rect id="Branch_17" width="0.351565" height="4.32254" rx="0.175782" transform="matrix(0.791949 -0.610587 0.587053 0.809548 15.2891 23.2217)" fill="#00B5E2"/>
</g>
</g>
<g id="Group 964">
<g id="Group 941_17">
<rect id="Branch_18" width="0.355313" height="3.31928" rx="0.177656" transform="matrix(-0.531021 0.847359 -0.832197 -0.554481 6.58203 23.1309)" fill="#00B5E2"/>
</g>
</g>
<g id="Group 960">
<g id="Group 941_18">
<rect id="Branch_19" width="0.354885" height="4.57601" rx="0.177443" transform="matrix(0.566377 0.824146 -0.807432 0.589961 7.33594 12.4209)" fill="#00B5E2"/>
</g>
</g>
<g id="Group 961">
<g id="Group 941_19">
<rect id="Branch_20" x="3.69531" y="15.001" width="0.347647" height="6.69135" rx="0.173824" fill="#00B5E2"/>
</g>
</g>
<g id="Group 968">
<g id="Group 941_20">
<rect id="Branch_21" x="23.627" y="26.3525" width="0.347647" height="4.89902" rx="0.173824" fill="#00B5E2"/>
</g>
</g>
</g>
<g id="Group 974">
<g id="Group 941_21">
<rect id="Branch_22" x="26.1758" y="31.9248" width="0.347647" height="6.5" rx="0.173824" fill="#00B5E2"/>
</g>
</g>
<g id="Group 978">
<g id="Group 941_22">
<rect id="Branch_23" x="28.7324" y="31.8994" width="0.347647" height="4.10054" rx="0.173824" fill="#00B5E2"/>
</g>
</g>
<g id="Group 979">
<g id="Group 941_23">
<rect id="Branch_24" x="23.6328" y="31.4209" width="0.347647" height="6.9" rx="0.173824" fill="#00B5E2"/>
</g>
</g>
<g id="Group 993">
<g id="Group 970">
<g id="Group 941_24">
<rect id="Branch_25" width="0.351636" height="6.04118" rx="0.175818" transform="matrix(0.787735 -0.616014 0.592509 0.805564 33.2734 14.2451)" fill="#00B5E2"/>
</g>
</g>
<g id="Group 972">
<g id="Group 941_25">
<rect id="Branch_26" width="0.354887" height="13.4037" rx="0.177444" transform="matrix(0.566229 0.824248 -0.80754 0.589813 36.9531 23.2363)" fill="#00B5E2"/>
</g>
</g>
<g id="Group 974_2">
<g id="Group 941_26">
<rect id="Branch_27" width="0.354887" height="17.4956" rx="0.177444" transform="matrix(0.566229 0.824248 -0.80754 0.589813 42.7402 22.1885)" fill="#00B5E2"/>
</g>
</g>
<g id="Group 971">
<g id="Group 941_27">
<rect id="Branch_28" x="36.7285" y="18.7051" width="0.347647" height="4.89902" rx="0.173824" fill="#00B5E2"/>
</g>
</g>
<g id="Group 973">
<g id="Group 941_28">
<rect id="Branch_29" x="26.1777" y="31.0127" width="0.347647" height="5.73544" rx="0.173824" fill="#00B5E2"/>
</g>
</g>
</g>
<g id="Group 951">
<g id="Group 941_29">
<rect id="Branch_30" x="27.2266" y="8.54883" width="0.358465" height="5.56236" rx="0.179232" transform="rotate(-90 27.2266 8.54883)" fill="#00B5E2"/>
</g>
</g>
<g id="Group 945">
<g id="Group 941_30">
<rect id="Branch_31" width="0.351565" height="6.54217" rx="0.175782" transform="matrix(0.791949 -0.610587 0.587053 0.809548 32.3945 8.34277)" fill="#00B5E2"/>
</g>
</g>
<g id="Group 944">
<g id="Group 941_31">
<rect id="Branch_32" x="36.1523" y="13.5674" width="0.358465" height="6.72118" rx="0.179232" transform="rotate(-90 36.1523 13.5674)" fill="#00B5E2"/>
</g>
</g>
<g id="Group 985">
<g id="Group 941_32">
<rect id="Branch_33" x="42.5215" y="13.209" width="0.347647" height="9.36997" rx="0.173824" fill="#00B5E2"/>
</g>
</g>
<g id="Circle Right" filter="url(#filter0_f_1060_6550)">
<ellipse cx="0.98655" cy="1.01725" rx="0.98655" ry="1.01725" transform="matrix(1 0 0 -1 6.13281 13.8594)" fill="white"/>
</g>
<g id="Circle Right_2" filter="url(#filter1_f_1060_6550)">
<ellipse cx="0.98655" cy="1.01725" rx="0.98655" ry="1.01725" transform="matrix(1 0 0 -1 22.8203 31.7832)" fill="white"/>
</g>
<g id="Circle Right_3" filter="url(#filter2_f_1060_6550)">
<ellipse cx="0.98655" cy="1.01725" rx="0.98655" ry="1.01725" transform="matrix(1 0 0 -1 22.0078 8.95996)" fill="white"/>
</g>
<g id="Circle Right_4" filter="url(#filter3_f_1060_6550)">
<ellipse cx="0.98655" cy="1.01725" rx="0.98655" ry="1.01725" transform="matrix(1 0 0 -1 12.1582 9.31934)" fill="white"/>
</g>
<g id="Circle Right_5" filter="url(#filter4_f_1060_6550)">
<ellipse cx="0.98655" cy="1.01725" rx="0.98655" ry="1.01725" transform="matrix(1 0 0 -1 28.0352 33.9336)" fill="white"/>
</g>
<g id="Group 1041">
<ellipse id="Circle Right_6" cx="0.98655" cy="1.01725" rx="0.98655" ry="1.01725" transform="matrix(1 0 0 -1 27.918 33.9336)" fill="#00B5E2"/>
<circle id="Circle Right_7" cx="0.7" cy="0.7" r="0.7" transform="matrix(1 0 0 -1 28.1992 33.6299)" fill="white"/>
</g>
<g id="Group 1042_2">
<ellipse id="Circle Right_8" cx="0.98655" cy="1.01725" rx="0.98655" ry="1.01725" transform="matrix(1 0 0 -1 27.918 33.9336)" fill="#00B5E2"/>
<circle id="Circle Right_9" cx="0.7" cy="0.7" r="0.7" transform="matrix(1 0 0 -1 28.1992 33.6299)" fill="white"/>
</g>
<g id="Group 1044">
<ellipse id="Circle Right_10" cx="0.98655" cy="1.01725" rx="0.98655" ry="1.01725" transform="matrix(1 0 0 -1 26 9.53418)" fill="#00B5E2"/>
<circle id="Circle Right_11" cx="0.7" cy="0.7" r="0.7" transform="matrix(1 0 0 -1 26.2812 9.23047)" fill="white"/>
</g>
<g id="Group 1045">
<ellipse id="Circle Right_12" cx="0.98655" cy="1.01725" rx="0.98655" ry="1.01725" transform="matrix(1 0 0 -1 22 9.03418)" fill="#00B5E2"/>
<circle id="Circle Right_13" cx="0.7" cy="0.7" r="0.7" transform="matrix(1 0 0 -1 22.2812 8.73047)" fill="white"/>
</g>
<g id="Group 1046">
<ellipse id="Circle Right_14" cx="0.98655" cy="1.01725" rx="0.98655" ry="1.01725" transform="matrix(1 0 0 -1 12 9.03418)" fill="#00B5E2"/>
<circle id="Circle Right_15" cx="0.7" cy="0.7" r="0.7" transform="matrix(1 0 0 -1 12.2812 8.73047)" fill="white"/>
</g>
<g id="Group 1047">
<ellipse id="Circle Right_16" cx="0.98655" cy="1.01725" rx="0.98655" ry="1.01725" transform="matrix(1 0 0 -1 7 13.0342)" fill="#00B5E2"/>
<circle id="Circle Right_17" cx="0.7" cy="0.7" r="0.7" transform="matrix(1 0 0 -1 7.28125 12.7305)" fill="white"/>
</g>
<g id="Group 1043">
<ellipse id="Circle Right_18" cx="0.98655" cy="1.01725" rx="0.98655" ry="1.01725" transform="matrix(1 0 0 -1 22.918 32.9336)" fill="#00B5E2"/>
<circle id="Circle Right_19" cx="0.7" cy="0.7" r="0.7" transform="matrix(1 0 0 -1 23.1992 32.6299)" fill="white"/>
</g>
</g>
<defs>
<filter id="filter0_f_1060_6550" x="0.132812" y="5.8252" width="13.9727" height="14.0342" filterUnits="userSpaceOnUse" color-interpolation-filters="sRGB">
<feFlood flood-opacity="0" result="BackgroundImageFix"/>
<feBlend mode="normal" in="SourceGraphic" in2="BackgroundImageFix" result="shape"/>
<feGaussianBlur stdDeviation="3" result="effect1_foregroundBlur_1060_6550"/>
</filter>
<filter id="filter1_f_1060_6550" x="16.8203" y="23.749" width="13.9727" height="14.0342" filterUnits="userSpaceOnUse" color-interpolation-filters="sRGB">
<feFlood flood-opacity="0" result="BackgroundImageFix"/>
<feBlend mode="normal" in="SourceGraphic" in2="BackgroundImageFix" result="shape"/>
<feGaussianBlur stdDeviation="3" result="effect1_foregroundBlur_1060_6550"/>
</filter>
<filter id="filter2_f_1060_6550" x="16.0078" y="0.925781" width="13.9727" height="14.0342" filterUnits="userSpaceOnUse" color-interpolation-filters="sRGB">
<feFlood flood-opacity="0" result="BackgroundImageFix"/>
<feBlend mode="normal" in="SourceGraphic" in2="BackgroundImageFix" result="shape"/>
<feGaussianBlur stdDeviation="3" result="effect1_foregroundBlur_1060_6550"/>
</filter>
<filter id="filter3_f_1060_6550" x="6.1582" y="1.28516" width="13.9727" height="14.0342" filterUnits="userSpaceOnUse" color-interpolation-filters="sRGB">
<feFlood flood-opacity="0" result="BackgroundImageFix"/>
<feBlend mode="normal" in="SourceGraphic" in2="BackgroundImageFix" result="shape"/>
<feGaussianBlur stdDeviation="3" result="effect1_foregroundBlur_1060_6550"/>
</filter>
<filter id="filter4_f_1060_6550" x="22.0352" y="25.8994" width="13.9727" height="14.0342" filterUnits="userSpaceOnUse" color-interpolation-filters="sRGB">
<feFlood flood-opacity="0" result="BackgroundImageFix"/>
<feBlend mode="normal" in="SourceGraphic" in2="BackgroundImageFix" result="shape"/>
<feGaussianBlur stdDeviation="3" result="effect1_foregroundBlur_1060_6550"/>
</filter>
</defs>
</svg>
