<svg width="674" height="363" viewBox="0 0 674 363" fill="none" xmlns="http://www.w3.org/2000/svg">
<g filter="url(#filter0_f_1060_6789)">
<rect x="205" y="328.101" width="3" height="27.0084" rx="1.5" fill="#00B5E2"/>
<rect x="607" y="144.625" width="3" height="60" rx="1.5" transform="rotate(-90 607 144.625)" fill="#00B5E2"/>
<rect x="364" y="49.5957" width="3" height="68" rx="1.5" transform="rotate(-90 364 49.5957)" fill="#00B5E2"/>
<rect x="316.008" y="120.782" width="3" height="74.9932" rx="1.5" transform="rotate(-90 316.008 120.782)" fill="#00B5E2"/>
<rect x="294" y="150.627" width="3" height="81" rx="1.5" transform="rotate(-90 294 150.627)" fill="#00B5E2"/>
<rect x="393" y="178.636" width="3" height="54" rx="1.5" transform="rotate(-90 393 178.636)" fill="#00B5E2"/>
<rect x="206" y="330.684" width="3" height="263" rx="1.5" transform="rotate(-90 206 330.684)" fill="#00B5E2"/>
<rect x="8" y="312.678" width="3" height="439" rx="1.5" transform="rotate(-90 8 312.678)" fill="#00B5E2"/>
<rect x="380" y="84.6064" width="3" height="31" rx="1.5" transform="rotate(-90 380 84.6064)" fill="#00B5E2"/>
<rect x="475" y="26.5889" width="3" height="48" rx="1.5" transform="rotate(-90 475 26.5889)" fill="#00B5E2"/>
<rect width="3.00034" height="55.3557" rx="1.50017" transform="matrix(0.800783 -0.598954 0.598714 0.800963 519.611 24.8643)" fill="#00B5E2"/>
<rect x="374" y="10.584" width="3" height="58" rx="1.5" transform="rotate(-90 374 10.584)" fill="#00B5E2"/>
<rect x="552" y="68.6016" width="3" height="58" rx="1.5" transform="rotate(-90 552 68.6016)" fill="#00B5E2"/>
<rect width="3.00034" height="18.1408" rx="1.50017" transform="matrix(0.800783 -0.598954 0.598714 0.800963 428.59 8.83008)" fill="#00B5E2"/>
<rect width="3.00034" height="36.5746" rx="1.50017" transform="matrix(0.800783 -0.598954 0.598714 0.800963 372 149.424)" fill="#00B5E2"/>
<rect width="3.00035" height="19.7225" rx="1.50018" transform="matrix(0.79048 -0.612488 0.612249 0.790665 493 76.4414)" fill="#00B5E2"/>
<rect width="3.00034" height="51.1268" rx="1.50017" transform="matrix(0.796682 -0.604399 0.604159 0.796864 527.193 74.2734)" fill="#00B5E2"/>
<rect width="3.00035" height="71.6962" rx="1.50018" transform="matrix(0.78968 -0.613519 0.61328 0.789866 428.766 47.8564)" fill="#00B5E2"/>
<rect width="3.00037" height="75.9258" rx="1.50018" transform="matrix(0.778927 -0.627114 0.626876 0.779119 407.525 82.8975)" fill="#00B5E2"/>
<rect width="3.00034" height="28.1601" rx="1.50017" transform="matrix(0.798725 -0.601696 0.601456 0.798906 388 119.422)" fill="#00B5E2"/>
<rect width="3.00064" height="22.924" rx="1.50032" transform="matrix(0.566839 0.823829 -0.823663 0.56708 505.883 147.627)" fill="#00B5E2"/>
<rect width="3.00063" height="114.476" rx="1.50031" transform="matrix(0.577901 0.816107 -0.815937 0.578142 558.926 149.547)" fill="#00B5E2"/>
<rect width="3.00066" height="28.3832" rx="1.50033" transform="matrix(-0.54261 0.839985 -0.83983 -0.54285 296.898 148.664)" fill="#00B5E2"/>
<rect x="375.871" y="7" width="3.00069" height="28.806" rx="1.50034" transform="rotate(58.7083 375.871 7)" fill="#00B5E2"/>
<rect width="3.00062" height="39.0819" rx="1.50031" transform="matrix(0.578049 0.816002 -0.815831 0.57829 303.395 59.0039)" fill="#00B5E2"/>
<rect width="3.00063" height="62.8761" rx="1.50032" transform="matrix(0.570709 0.821153 -0.820985 0.57095 365.564 46.0137)" fill="#00B5E2"/>
<rect x="607" y="65.6006" width="3" height="78.442" rx="1.5" fill="#00B5E2"/>
<rect x="504" y="88.6084" width="3" height="62.0194" rx="1.5" fill="#00B5E2"/>
<rect x="557" y="111.615" width="3" height="41.0128" rx="1.5" fill="#00B5E2"/>
<rect x="272" y="80.6055" width="3" height="56.0175" rx="1.5" fill="#00B5E2"/>
<rect x="454" y="138.624" width="3" height="19.0059" rx="1.5" fill="#00B5E2"/>
<rect x="444" y="175.635" width="3" height="41.0128" rx="1.5" fill="#00B5E2"/>
<rect x="466" y="230.652" width="3" height="100.031" rx="1.5" fill="#00B5E2"/>
<rect x="488" y="222.067" width="3" height="66.0206" rx="1.5" fill="#00B5E2"/>
<rect x="444" y="217.065" width="3" height="93.0291" rx="1.5" fill="#00B5E2"/>
<rect x="466" y="214.647" width="3" height="48.015" rx="1.5" fill="#00B5E2"/>
<path d="M308.608 62.5308C308.608 58.6108 305.431 55.4337 301.513 55.4337C297.596 55.4337 294.419 58.6108 294.419 62.5308C294.419 66.4509 297.596 69.628 301.513 69.628C305.431 69.628 308.608 66.4509 308.608 62.5308Z" fill="white" stroke="#00B5E2" stroke-width="2.83779"/>
<path d="M452.608 212.578C452.608 208.658 449.431 205.481 445.513 205.481C441.596 205.481 438.419 208.658 438.419 212.578C438.419 216.498 441.596 219.675 445.513 219.675C449.431 219.675 452.608 216.498 452.608 212.578Z" fill="white" stroke="#00B5E2" stroke-width="2.83779"/>
<path d="M445.608 21.5181C445.608 17.5981 442.431 14.421 438.513 14.421C434.596 14.421 431.419 17.5981 431.419 21.5181C431.419 25.4382 434.596 28.6153 438.513 28.6153C442.431 28.6153 445.608 25.4382 445.608 21.5181Z" fill="white" stroke="#00B5E2" stroke-width="2.83779"/>
<path d="M360.608 24.5191C360.608 20.5991 357.431 17.422 353.513 17.422C349.596 17.422 346.419 20.5991 346.419 24.5191C346.419 28.4392 349.596 31.6163 353.513 31.6163C357.431 31.6163 360.608 28.4392 360.608 24.5191Z" fill="white" stroke="#00B5E2" stroke-width="2.83779"/>
<path d="M483.608 25.5191C483.608 21.5991 480.431 18.422 476.513 18.422C472.596 18.422 469.419 21.5991 469.419 25.5191C469.419 29.4392 472.596 32.6163 476.513 32.6163C480.431 32.6163 483.608 29.4392 483.608 25.5191Z" fill="white" stroke="#00B5E2" stroke-width="2.83779"/>
<path d="M474.608 260.592C474.608 256.672 471.431 253.495 467.513 253.495C463.596 253.495 460.419 256.672 460.419 260.592C460.419 264.512 463.596 267.69 467.513 267.69C471.431 267.69 474.608 264.512 474.608 260.592Z" fill="white" stroke="#00B5E2" stroke-width="2.83779"/>
<path d="M497.608 230.584C497.608 226.664 494.431 223.486 490.513 223.486C486.596 223.486 483.419 226.664 483.419 230.584C483.419 234.504 486.596 237.681 490.513 237.681C494.431 237.681 497.608 234.504 497.608 230.584Z" fill="white" stroke="#00B5E2" stroke-width="2.83779"/>
</g>
<rect x="205" y="328.101" width="3" height="27.0084" rx="1.5" fill="#00B5E2"/>
<rect x="364" y="49.5957" width="3" height="68" rx="1.5" transform="rotate(-90 364 49.5957)" fill="#00B5E2"/>
<rect x="316.008" y="120.782" width="3" height="74.9932" rx="1.5" transform="rotate(-90 316.008 120.782)" fill="#00B5E2"/>
<rect x="206" y="331.102" width="3" height="263" rx="1.5" transform="rotate(-90 206 331.102)" fill="#00B5E2"/>
<rect x="8" y="313.096" width="3" height="439" rx="1.5" transform="rotate(-90 8 313.096)" fill="#00B5E2"/>
<rect x="380" y="84.6064" width="3" height="31" rx="1.5" transform="rotate(-90 380 84.6064)" fill="#00B5E2"/>
<rect width="3.00035" height="19.7225" rx="1.50018" transform="matrix(0.79048 -0.612488 0.612249 0.790665 493 76.4414)" fill="#00B5E2"/>
<rect width="3.00035" height="71.6962" rx="1.50018" transform="matrix(0.78968 -0.613519 0.61328 0.789866 428.766 47.8564)" fill="#00B5E2"/>
<rect width="3.00037" height="75.9258" rx="1.50018" transform="matrix(0.778927 -0.627114 0.626876 0.779119 407.525 82.8975)" fill="#00B5E2"/>
<rect width="3.00034" height="28.1601" rx="1.50017" transform="matrix(0.798725 -0.601696 0.601456 0.798906 388 119.422)" fill="#00B5E2"/>
<rect width="3.00064" height="22.924" rx="1.50032" transform="matrix(0.566839 0.823829 -0.823663 0.56708 505.883 147.627)" fill="#00B5E2"/>
<rect x="374" y="10.584" width="3" height="58" rx="1.5" transform="rotate(-90 374 10.584)" fill="#00B5E2"/>
<rect width="3.00034" height="18.1408" rx="1.50017" transform="matrix(0.800783 -0.598954 0.598714 0.800963 428.59 8.83008)" fill="#00B5E2"/>
<rect width="3.00069" height="28.806" rx="1.50034" transform="matrix(0.519277 0.854606 -0.854462 0.519514 375.871 7)" fill="#00B5E2"/>
<rect width="3.00063" height="62.8761" rx="1.50032" transform="matrix(0.570709 0.821153 -0.820985 0.57095 365.564 46.0137)" fill="#00B5E2"/>
<rect x="504" y="88.6084" width="3" height="62.0194" rx="1.5" fill="#00B5E2"/>
<rect x="454" y="138.624" width="3" height="19.0059" rx="1.5" fill="#00B5E2"/>
<rect x="294" y="150.628" width="3" height="81" rx="1.5" transform="rotate(-90 294 150.628)" fill="#00B5E2"/>
<rect x="393" y="178.637" width="3" height="54" rx="1.5" transform="rotate(-90 393 178.637)" fill="#00B5E2"/>
<rect width="3.00034" height="36.5746" rx="1.50017" transform="matrix(0.800783 -0.598954 0.598714 0.800963 372 149.424)" fill="#00B5E2"/>
<rect width="3.00066" height="28.3832" rx="1.50033" transform="matrix(-0.54261 0.839985 -0.83983 -0.54285 296.898 148.664)" fill="#00B5E2"/>
<rect x="303.396" y="59.0039" width="3.00062" height="39.0819" rx="1.50031" transform="rotate(54.6781 303.396 59.0039)" fill="#00B5E2"/>
<rect x="272" y="80.6055" width="3" height="56.0175" rx="1.5" fill="#00B5E2"/>
<rect x="444" y="175.636" width="3" height="41.0128" rx="1.5" fill="#00B5E2"/>
<rect x="466" y="230.652" width="3" height="100.031" rx="1.5" fill="#00B5E2"/>
<rect x="488" y="222.067" width="3" height="66.0206" rx="1.5" fill="#00B5E2"/>
<rect x="444" y="218.066" width="3" height="93.0291" rx="1.5" fill="#00B5E2"/>
<rect width="3.00034" height="51.1268" rx="1.50017" transform="matrix(0.796682 -0.604399 0.604159 0.796864 527.193 74.2734)" fill="#00B5E2"/>
<rect width="3.00063" height="114.476" rx="1.50031" transform="matrix(0.577901 0.816107 -0.815937 0.578142 558.926 149.547)" fill="#00B5E2"/>
<rect x="557" y="111.615" width="3" height="41.0128" rx="1.5" fill="#00B5E2"/>
<rect x="466" y="214.647" width="3" height="48.015" rx="1.5" fill="#00B5E2"/>
<g filter="url(#filter1_f_1060_6789)">
<rect x="7" y="310.095" width="3" height="45.0141" rx="1.5" fill="#00B5E2"/>
</g>
<rect x="7" y="310.095" width="3" height="45.0141" rx="1.5" fill="#00B5E2"/>
<rect x="607" y="144.625" width="3" height="60" rx="1.5" transform="rotate(-90 607 144.625)" fill="#00B5E2"/>
<rect x="475" y="26.5889" width="3" height="48" rx="1.5" transform="rotate(-90 475 26.5889)" fill="#00B5E2"/>
<rect width="3.00034" height="55.3557" rx="1.50017" transform="matrix(0.800783 -0.598954 0.598714 0.800963 519.611 24.8643)" fill="#00B5E2"/>
<rect x="552" y="68.6016" width="3" height="58" rx="1.5" transform="rotate(-90 552 68.6016)" fill="#00B5E2"/>
<rect x="607" y="65.6006" width="3" height="78.442" rx="1.5" fill="#00B5E2"/>
<path d="M483.608 25.5191C483.608 21.5991 480.431 18.422 476.513 18.422C472.596 18.422 469.419 21.5991 469.419 25.5191C469.419 29.4392 472.596 32.6163 476.513 32.6163C480.431 32.6163 483.608 29.4392 483.608 25.5191Z" fill="white" stroke="#00B5E2" stroke-width="2.83779"/>
<g filter="url(#filter2_f_1060_6789)">
<ellipse cx="8.51338" cy="8.51604" rx="8.51338" ry="8.51604" transform="matrix(1 0 0 -1 293 71.0469)" fill="white"/>
<path d="M308.608 62.5308C308.608 58.6108 305.431 55.4337 301.513 55.4337C297.596 55.4337 294.419 58.6108 294.419 62.5308C294.419 66.4509 297.596 69.628 301.513 69.628C305.431 69.628 308.608 66.4509 308.608 62.5308Z" stroke="#00B5E2" stroke-width="2.83779"/>
</g>
<path d="M308.608 62.5308C308.608 58.6108 305.431 55.4337 301.513 55.4337C297.596 55.4337 294.419 58.6108 294.419 62.5308C294.419 66.4509 297.596 69.628 301.513 69.628C305.431 69.628 308.608 66.4509 308.608 62.5308Z" fill="white" stroke="#00B5E2" stroke-width="2.83779"/>
<g filter="url(#filter3_f_1060_6789)">
<ellipse cx="8.51338" cy="8.51604" rx="8.51338" ry="8.51604" transform="matrix(1 0 0 -1 437 221.094)" fill="white"/>
<path d="M452.608 212.578C452.608 208.658 449.431 205.481 445.513 205.481C441.596 205.481 438.419 208.658 438.419 212.578C438.419 216.498 441.596 219.675 445.513 219.675C449.431 219.675 452.608 216.498 452.608 212.578Z" stroke="#00B5E2" stroke-width="2.83779"/>
</g>
<path d="M452.608 212.578C452.608 208.658 449.431 205.481 445.513 205.481C441.596 205.481 438.419 208.658 438.419 212.578C438.419 216.498 441.596 219.675 445.513 219.675C449.431 219.675 452.608 216.498 452.608 212.578Z" fill="white" stroke="#00B5E2" stroke-width="2.83779"/>
<g filter="url(#filter4_f_1060_6789)">
<ellipse cx="8.51338" cy="8.51604" rx="8.51338" ry="8.51604" transform="matrix(1 0 0 -1 430 30.0342)" fill="white"/>
<path d="M445.608 21.5181C445.608 17.5981 442.431 14.421 438.513 14.421C434.596 14.421 431.419 17.5981 431.419 21.5181C431.419 25.4382 434.596 28.6153 438.513 28.6153C442.431 28.6153 445.608 25.4382 445.608 21.5181Z" stroke="#00B5E2" stroke-width="2.83779"/>
</g>
<path d="M445.608 21.5181C445.608 17.5981 442.431 14.421 438.513 14.421C434.596 14.421 431.419 17.5981 431.419 21.5181C431.419 25.4382 434.596 28.6153 438.513 28.6153C442.431 28.6153 445.608 25.4382 445.608 21.5181Z" fill="white" stroke="#00B5E2" stroke-width="2.83779"/>
<g filter="url(#filter5_f_1060_6789)">
<ellipse cx="8.51338" cy="8.51604" rx="8.51338" ry="8.51604" transform="matrix(1 0 0 -1 345 33.0352)" fill="white"/>
<path d="M360.608 24.5191C360.608 20.5991 357.431 17.422 353.513 17.422C349.596 17.422 346.419 20.5991 346.419 24.5191C346.419 28.4392 349.596 31.6163 353.513 31.6163C357.431 31.6163 360.608 28.4392 360.608 24.5191Z" stroke="#00B5E2" stroke-width="2.83779"/>
</g>
<path d="M360.608 24.5191C360.608 20.5991 357.431 17.422 353.513 17.422C349.596 17.422 346.419 20.5991 346.419 24.5191C346.419 28.4392 349.596 31.6163 353.513 31.6163C357.431 31.6163 360.608 28.4392 360.608 24.5191Z" fill="white" stroke="#00B5E2" stroke-width="2.83779"/>
<g filter="url(#filter6_f_1060_6789)">
<ellipse cx="8.51338" cy="8.51604" rx="8.51338" ry="8.51604" transform="matrix(1 0 0 -1 468 34.0352)" fill="white"/>
<path d="M483.608 25.5191C483.608 21.5991 480.431 18.422 476.513 18.422C472.596 18.422 469.419 21.5991 469.419 25.5191C469.419 29.4392 472.596 32.6163 476.513 32.6163C480.431 32.6163 483.608 29.4392 483.608 25.5191Z" stroke="#00B5E2" stroke-width="2.83779"/>
</g>
<g filter="url(#filter7_f_1060_6789)">
<ellipse cx="8.51338" cy="8.51604" rx="8.51338" ry="8.51604" transform="matrix(1 0 0 -1 459 269.108)" fill="white"/>
<path d="M474.608 260.592C474.608 256.672 471.431 253.495 467.513 253.495C463.596 253.495 460.419 256.672 460.419 260.592C460.419 264.512 463.596 267.69 467.513 267.69C471.431 267.69 474.608 264.512 474.608 260.592Z" stroke="#00B5E2" stroke-width="2.83779"/>
</g>
<g filter="url(#filter8_b_1060_6789)">
<ellipse cx="8.51338" cy="8.51604" rx="8.51338" ry="8.51604" transform="matrix(1 0 0 -1 459 269.108)" fill="white"/>
<path d="M474.608 260.592C474.608 256.672 471.431 253.495 467.513 253.495C463.596 253.495 460.419 256.672 460.419 260.592C460.419 264.512 463.596 267.69 467.513 267.69C471.431 267.69 474.608 264.512 474.608 260.592Z" stroke="#00B5E2" stroke-width="2.83779"/>
</g>
<g filter="url(#filter9_f_1060_6789)">
<ellipse cx="8.51338" cy="8.51604" rx="8.51338" ry="8.51604" transform="matrix(1 0 0 -1 482 239.1)" fill="white"/>
<path d="M497.608 230.584C497.608 226.664 494.431 223.486 490.513 223.486C486.596 223.486 483.419 226.664 483.419 230.584C483.419 234.504 486.596 237.681 490.513 237.681C494.431 237.681 497.608 234.504 497.608 230.584Z" stroke="#00B5E2" stroke-width="2.83779"/>
</g>
<path d="M496.608 230.584C496.608 226.664 493.431 223.486 489.513 223.486C485.596 223.486 482.419 226.664 482.419 230.584C482.419 234.504 485.596 237.681 489.513 237.681C493.431 237.681 496.608 234.504 496.608 230.584Z" fill="white" stroke="#00B5E2" stroke-width="2.83779"/>
<path d="M483.608 24.5191C483.608 20.5991 480.431 17.422 476.513 17.422C472.596 17.422 469.419 20.5991 469.419 24.5191C469.419 28.4392 472.596 31.6163 476.513 31.6163C480.431 31.6163 483.608 28.4392 483.608 24.5191Z" fill="white" stroke="#00B5E2" stroke-width="2.83779"/>
<defs>
<filter id="filter0_f_1060_6789" x="1" y="0.560547" width="673" height="361.549" filterUnits="userSpaceOnUse" color-interpolation-filters="sRGB">
<feFlood flood-opacity="0" result="BackgroundImageFix"/>
<feBlend mode="normal" in="SourceGraphic" in2="BackgroundImageFix" result="shape"/>
<feGaussianBlur stdDeviation="3.5" result="effect1_foregroundBlur_1060_6789"/>
</filter>
<filter id="filter1_f_1060_6789" x="0" y="303.095" width="17" height="59.0137" filterUnits="userSpaceOnUse" color-interpolation-filters="sRGB">
<feFlood flood-opacity="0" result="BackgroundImageFix"/>
<feBlend mode="normal" in="SourceGraphic" in2="BackgroundImageFix" result="shape"/>
<feGaussianBlur stdDeviation="3.5" result="effect1_foregroundBlur_1060_6789"/>
</filter>
<filter id="filter2_f_1060_6789" x="287" y="48.0146" width="29.0273" height="29.0322" filterUnits="userSpaceOnUse" color-interpolation-filters="sRGB">
<feFlood flood-opacity="0" result="BackgroundImageFix"/>
<feBlend mode="normal" in="SourceGraphic" in2="BackgroundImageFix" result="shape"/>
<feGaussianBlur stdDeviation="3" result="effect1_foregroundBlur_1060_6789"/>
</filter>
<filter id="filter3_f_1060_6789" x="431" y="198.062" width="29.0273" height="29.0322" filterUnits="userSpaceOnUse" color-interpolation-filters="sRGB">
<feFlood flood-opacity="0" result="BackgroundImageFix"/>
<feBlend mode="normal" in="SourceGraphic" in2="BackgroundImageFix" result="shape"/>
<feGaussianBlur stdDeviation="3" result="effect1_foregroundBlur_1060_6789"/>
</filter>
<filter id="filter4_f_1060_6789" x="424" y="7.00195" width="29.0273" height="29.0322" filterUnits="userSpaceOnUse" color-interpolation-filters="sRGB">
<feFlood flood-opacity="0" result="BackgroundImageFix"/>
<feBlend mode="normal" in="SourceGraphic" in2="BackgroundImageFix" result="shape"/>
<feGaussianBlur stdDeviation="3" result="effect1_foregroundBlur_1060_6789"/>
</filter>
<filter id="filter5_f_1060_6789" x="339" y="10.0029" width="29.0273" height="29.0322" filterUnits="userSpaceOnUse" color-interpolation-filters="sRGB">
<feFlood flood-opacity="0" result="BackgroundImageFix"/>
<feBlend mode="normal" in="SourceGraphic" in2="BackgroundImageFix" result="shape"/>
<feGaussianBlur stdDeviation="3" result="effect1_foregroundBlur_1060_6789"/>
</filter>
<filter id="filter6_f_1060_6789" x="462" y="11.0029" width="29.0273" height="29.0322" filterUnits="userSpaceOnUse" color-interpolation-filters="sRGB">
<feFlood flood-opacity="0" result="BackgroundImageFix"/>
<feBlend mode="normal" in="SourceGraphic" in2="BackgroundImageFix" result="shape"/>
<feGaussianBlur stdDeviation="3" result="effect1_foregroundBlur_1060_6789"/>
</filter>
<filter id="filter7_f_1060_6789" x="453" y="246.076" width="29.0273" height="29.0322" filterUnits="userSpaceOnUse" color-interpolation-filters="sRGB">
<feFlood flood-opacity="0" result="BackgroundImageFix"/>
<feBlend mode="normal" in="SourceGraphic" in2="BackgroundImageFix" result="shape"/>
<feGaussianBlur stdDeviation="3" result="effect1_foregroundBlur_1060_6789"/>
</filter>
<filter id="filter8_b_1060_6789" x="455" y="248.076" width="25.0273" height="25.0322" filterUnits="userSpaceOnUse" color-interpolation-filters="sRGB">
<feFlood flood-opacity="0" result="BackgroundImageFix"/>
<feGaussianBlur in="BackgroundImageFix" stdDeviation="2"/>
<feComposite in2="SourceAlpha" operator="in" result="effect1_backgroundBlur_1060_6789"/>
<feBlend mode="normal" in="SourceGraphic" in2="effect1_backgroundBlur_1060_6789" result="shape"/>
</filter>
<filter id="filter9_f_1060_6789" x="476" y="216.067" width="29.0273" height="29.0322" filterUnits="userSpaceOnUse" color-interpolation-filters="sRGB">
<feFlood flood-opacity="0" result="BackgroundImageFix"/>
<feBlend mode="normal" in="SourceGraphic" in2="BackgroundImageFix" result="shape"/>
<feGaussianBlur stdDeviation="3" result="effect1_foregroundBlur_1060_6789"/>
</filter>
</defs>
</svg>
