<svg width="60" height="55" viewBox="0 0 60 55" fill="none" xmlns="http://www.w3.org/2000/svg">
<path d="M19.0608 37.6313C17.7977 38.3666 16.4681 38.8679 14.9723 39.0016C12.579 39.2021 10.5181 38.5337 8.68995 37.1634C7.85895 36.5283 6.92824 35.9936 6.09724 35.392C2.60705 32.7182 0.679138 29.3091 0.1473 25.265C-0.451018 20.92 0.778858 16.9762 3.73721 13.4668C5.43244 11.4615 7.62627 9.99091 10.2522 9.02166C10.5181 8.92139 10.7841 8.72085 10.9503 8.4869C13.2771 5.07781 16.5013 2.70481 20.9222 1.70214C23.2158 1.16738 25.5426 1.2008 27.8361 1.70214C28.0688 1.76898 28.4012 1.73556 28.6339 1.63529C34.0187 -1.07193 40.4673 0.331818 44.1902 4.777C44.4893 5.14465 44.7552 5.2115 45.2206 5.17807C48.5446 4.97754 51.37 6.01363 53.5638 8.21952C56.6551 11.261 57.4529 14.8706 56.3227 18.8144C56.223 19.1821 56.2562 19.416 56.5886 19.6834C62.1729 24.6968 60.7104 33.5872 53.597 36.6286C53.3644 36.7289 53.1982 36.9628 53.0652 37.1634C51.1705 40.539 48.3119 42.8786 44.1237 43.8144C42.2955 44.2155 40.434 44.2155 38.6058 43.8144C38.1737 43.7142 37.9078 43.781 37.6087 44.0484C33.7196 47.4575 29.8305 50.8666 25.9415 54.2757C25.875 54.3425 25.8085 54.3759 25.6091 54.543C26.44 50.5658 27.2046 46.7222 28.0023 42.8118C24.1465 42.2436 21.2546 40.4388 19.0608 37.6313ZM5.19976 30.8131C5.3992 29.777 5.5654 28.7409 5.7316 27.7382C5.76484 27.5711 5.7316 27.3372 5.63188 27.2035C5.03356 26.2342 4.83412 25.2315 5.00032 24.1286C5.26624 22.4241 6.7288 21.0537 8.59023 20.7529C10.219 20.4856 11.9807 21.2877 12.8782 22.7249C14.5069 25.2984 12.8782 28.5738 9.75363 29.0417C9.25503 29.1085 8.72319 29.0417 8.19135 29.0417C7.62627 30.5123 8.15811 32.785 9.42123 34.2556C11.3824 36.5283 14.7396 37.1299 17.2991 35.6594C17.5982 35.4922 17.7312 35.3586 17.565 35.0243C16.3019 32.0163 16.3019 28.9749 17.3988 25.9C17.4653 25.7329 17.432 25.4655 17.2991 25.3318C16.5678 24.3291 16.3351 23.2262 16.5346 22.0564C16.9002 19.9174 19.0276 18.4468 21.3543 18.7142C23.1493 18.9147 24.6119 20.3519 24.9775 22.1901C25.3764 24.2957 23.9138 26.4348 21.6867 26.9027C21.1217 27.0364 20.4901 27.0029 19.8253 27.0364C18.8614 29.8773 19.0276 32.7182 20.6895 35.392C22.9166 39.0016 26.44 40.6393 31.1934 40.3051C30.6948 42.7115 30.2294 44.9842 29.7308 47.4241C31.559 45.7529 33.2875 44.1821 34.9827 42.6112C34.3511 42.1767 33.5201 41.6754 32.8221 41.1072C30.2626 39.035 28.7668 36.4281 28.2018 33.42C28.1685 33.1861 28.0023 32.8519 27.7696 32.7182C25.4429 31.4815 24.6451 28.8746 25.9415 26.769C27.2046 24.7302 29.9302 24.1286 31.9579 25.4321C34.8497 27.3037 34.4509 31.4147 31.2266 32.785C30.8942 32.9187 30.7945 33.0524 30.8942 33.3532C31.2931 34.3559 31.559 35.392 32.1241 36.3278C35.7472 42.511 44.4893 43.3131 49.2759 37.9321C49.4088 37.7984 49.5085 37.6313 49.5418 37.5979C48.3119 37.3305 47.082 37.0965 45.8854 36.7957C45.553 36.6954 45.3203 36.6954 44.9879 36.896C43.4589 37.7984 41.5974 37.6981 40.2014 36.6286C38.3732 35.2917 37.9743 32.785 39.2706 30.9468C40.9659 28.5404 44.589 28.5069 46.3175 30.9134C47.082 31.9829 47.215 33.1527 46.9491 34.3893C47.1153 34.4561 47.2482 34.4896 47.3812 34.5564C49.3091 35.0577 51.1373 34.8906 52.899 34.0551C56.09 32.5176 57.8517 28.9749 57.0872 25.666C56.7548 24.1954 56.0568 22.8586 54.8602 21.7556C54.3616 22.2904 53.8962 22.7917 53.4308 23.3265C53.3311 23.4602 53.2979 23.6607 53.2979 23.7944C53.3976 24.6634 53.2646 25.4989 52.8658 26.3011C51.4697 29.0083 47.6471 29.3759 45.6859 27.0029C44.8549 26.0003 44.6223 24.8639 44.8217 23.6273C45.2206 21.3545 47.5806 19.8171 49.9407 20.3184C50.6054 20.4521 51.2038 20.8198 51.8686 21.0872C55.2923 17.7783 54.5942 11.7623 50.406 9.05508C49.1097 8.21952 47.6471 7.7516 45.9851 7.71818C46.1845 8.25294 46.3175 8.72085 46.5169 9.18877C46.5502 9.28903 46.7164 9.42273 46.8161 9.45615C48.7773 9.95749 50.273 12.0965 49.8077 14.3024C49.3423 16.6086 46.8826 18.1126 44.5225 17.511C42.1958 16.9094 40.7997 14.5029 41.4977 12.2636C41.8634 11.0938 42.6611 10.2249 43.8245 9.62326C41.9298 3.67406 35.5145 1.90267 32.1241 3.10588C33.2875 4.07513 34.6503 4.97754 35.7472 6.08048C38.6723 9.02166 40.0684 12.4976 40.2346 16.408C40.2346 16.6754 40.3343 17.0096 40.5338 17.1433C42.0628 18.2797 42.5946 19.7168 42.2955 21.4214C41.9963 23.0257 40.567 24.4294 38.905 24.6968C37.2098 24.9976 35.4813 24.2957 34.5506 22.9254C33.7196 21.6888 33.5866 20.3853 34.1185 19.0484C34.7168 17.6112 35.8469 16.7422 37.5089 16.408C37.5089 16.3412 37.5422 16.2743 37.5422 16.2409C37.5422 16.1406 37.5422 16.0404 37.5422 15.9067C37.3427 13.5003 36.545 11.261 35.0492 9.25561C32.0243 5.11123 26.7392 3.1393 21.5205 4.20882C18.7284 4.777 16.4681 6.1139 14.6067 8.0524C14.6399 8.08583 14.6731 8.11925 14.6731 8.11925C14.8061 8.11925 14.9723 8.11925 15.1052 8.11925C17.0664 8.08583 18.9278 8.35321 20.756 9.02166C21.1217 9.15534 21.3876 9.15535 21.72 8.88797C23.3487 7.68476 25.6091 7.78503 27.1048 9.0885C28.8333 10.6259 29.0328 13.166 27.537 14.904C25.9415 16.7757 23.1161 16.9094 21.2879 15.2048C20.3239 14.3024 19.8918 13.2329 19.9915 11.9963C20.0248 11.5283 19.8586 11.3946 19.3932 11.261C14.8726 9.99091 10.7841 10.7596 7.32712 13.6005C3.07241 17.1767 1.90901 21.6219 3.10565 26.6353C3.50453 28.1393 4.23581 29.543 5.19976 30.8131ZM44.0572 13.4668C44.0572 14.3024 44.7552 15.0377 45.6527 15.0711C46.5502 15.1045 47.3147 14.3358 47.3147 13.4668C47.3147 12.5979 46.5834 11.896 45.6859 11.896C44.7885 11.896 44.0572 12.5979 44.0572 13.4668ZM50.7384 24.3626C50.7384 23.4936 50.0071 22.7917 49.1429 22.7583C48.2454 22.7583 47.4809 23.4936 47.5141 24.3626C47.5141 25.2315 48.2787 25.9334 49.1429 25.9334C50.0071 25.9334 50.7384 25.2315 50.7384 24.3626ZM10.8505 24.8973C10.8505 24.0283 10.1525 23.3265 9.28827 23.293C8.42403 23.2596 7.62627 24.0283 7.62627 24.8973C7.62627 25.7663 8.35755 26.4682 9.22179 26.4682C10.086 26.4682 10.8173 25.7663 10.8505 24.8973ZM31.2598 28.908C31.2598 28.039 30.5618 27.3372 29.6643 27.3037C28.7668 27.2703 28.0023 28.0056 28.0023 28.8746C28.0023 29.7102 28.7668 30.4454 29.6311 30.4454C30.4953 30.4789 31.2598 29.777 31.2598 28.908ZM24.2462 10.6594C23.3487 10.6594 22.6175 11.3612 22.6175 12.2302C22.6175 13.0992 23.382 13.8345 24.2795 13.8345C25.1437 13.8345 25.875 13.0992 25.875 12.2302C25.875 11.3278 25.1437 10.6594 24.2462 10.6594ZM38.1072 22.2235C39.0047 22.2235 39.736 21.5217 39.736 20.6861C39.7692 19.8171 38.9715 19.0818 38.1072 19.0818C37.243 19.0818 36.5117 19.8171 36.5117 20.6527C36.5117 21.5217 37.243 22.2235 38.1072 22.2235ZM44.4228 33.2195C44.4228 32.3505 43.6916 31.6487 42.7941 31.6487C41.8966 31.6487 41.1986 32.3505 41.1986 33.2529C41.1986 34.1219 41.9298 34.8238 42.8273 34.7904C43.758 34.7904 44.4228 34.1219 44.4228 33.2195ZM22.3848 22.7917C22.3848 21.9227 21.6535 21.2209 20.7893 21.2209C19.8918 21.2209 19.1605 21.8893 19.1605 22.7583C19.1273 23.6273 19.8918 24.3626 20.7893 24.3626C21.6535 24.3626 22.3848 23.6607 22.3848 22.7917Z" fill="white"/>
</svg>
