<svg width="42" height="42" viewBox="0 0 42 42" fill="none" xmlns="http://www.w3.org/2000/svg">
<path d="M36.75 28.735V34.923C36.7502 35.3661 36.5823 35.7927 36.2803 36.1168C35.9782 36.441 35.5645 36.6385 35.1225 36.6695C34.3577 36.722 33.733 36.75 33.25 36.75C17.7852 36.75 5.25 24.2148 5.25 8.75C5.25 8.267 5.27625 7.64225 5.3305 6.8775C5.36151 6.43553 5.55902 6.02177 5.88316 5.71972C6.2073 5.41766 6.63394 5.2498 7.077 5.25H13.265C13.4821 5.24978 13.6915 5.33025 13.8525 5.47579C14.0136 5.62132 14.1148 5.82152 14.1365 6.0375C14.1768 6.44 14.2135 6.76025 14.2485 7.0035C14.5963 9.43062 15.309 11.7912 16.3625 14.0053C16.5288 14.3553 16.4202 14.7735 16.1053 14.9975L12.3288 17.696C14.6378 23.0763 18.9255 27.364 24.3057 29.673L27.0007 25.9035C27.1109 25.7495 27.2716 25.639 27.4549 25.5914C27.6381 25.5437 27.8323 25.5619 28.0035 25.6427C30.2173 26.6944 32.5772 27.4053 35.0035 27.7515C35.2468 27.7865 35.567 27.8232 35.966 27.8635C36.1817 27.8856 36.3814 27.987 36.5266 28.148C36.6718 28.309 36.7503 28.5182 36.75 28.735Z" fill="#00B5E2"/>
</svg>
