<svg width="42" height="42" viewBox="0 0 42 42" fill="none" xmlns="http://www.w3.org/2000/svg">
<g clip-path="url(#clip0_1060_4862)">
<path d="M37.7184 7.00057C37.5594 6.98418 37.3991 6.98418 37.2401 7.00057H4.57341C4.36405 7.0038 4.15607 7.03519 3.95508 7.0939L20.8134 23.8822L37.7184 7.00057Z" fill="#00B5E2"/>
<path d="M39.4453 8.62109L22.4586 25.5378C22.0214 25.9723 21.4301 26.2163 20.8136 26.2163C20.1972 26.2163 19.6058 25.9723 19.1686 25.5378L2.33362 8.74943C2.28187 8.93964 2.25442 9.13565 2.25195 9.33276V32.6661C2.25195 33.2849 2.49779 33.8784 2.93537 34.316C3.37296 34.7536 3.96645 34.9994 4.58529 34.9994H37.252C37.8708 34.9994 38.4643 34.7536 38.9019 34.316C39.3395 33.8784 39.5853 33.2849 39.5853 32.6661V9.33276C39.576 9.08969 39.5288 8.84957 39.4453 8.62109ZM6.18362 32.6661H4.56195V30.9978L13.0436 22.5861L14.6886 24.2311L6.18362 32.6661ZM37.2286 32.6661H35.5953L27.0903 24.2311L28.7353 22.5861L37.2169 30.9978L37.2286 32.6661Z" fill="#00B5E2"/>
</g>
<defs>
<clipPath id="clip0_1060_4862">
<rect width="42" height="42" fill="white"/>
</clipPath>
</defs>
</svg>
