<svg width="418" height="119" viewBox="0 0 418 119" fill="none" xmlns="http://www.w3.org/2000/svg">
<path d="M120.011 69.9258C120.011 65.5938 116.499 62.082 112.167 62.082H110.258C105.926 62.082 102.414 65.5938 102.414 69.9258V99.7323C102.414 104.064 105.926 107.576 110.258 107.576H112.167C116.499 107.576 120.011 104.064 120.011 99.7323V69.9258ZM138.061 16.5879C142.393 16.5879 145.905 20.0997 145.905 24.4317V99.7323C145.905 104.064 142.393 107.576 138.061 107.576H136.152C131.82 107.576 128.309 104.064 128.309 99.7323V24.4317C128.309 20.0997 131.82 16.5879 136.152 16.5879H138.061ZM163.813 16.5879C168.145 16.5879 171.657 20.0997 171.657 24.4317V54.2382C171.657 58.5702 168.145 62.082 163.813 62.082H162.047C157.715 62.082 154.203 58.5702 154.203 54.2382V24.4317C154.203 20.0997 157.715 16.5879 162.047 16.5879H163.813Z" fill="#00B5E2"/>
<path d="M179.727 69.9258C179.727 65.5938 183.239 62.082 187.571 62.082H189.48C193.812 62.082 197.324 65.5938 197.324 69.9258V99.7323C197.324 104.064 193.812 107.576 189.48 107.576H187.571C183.239 107.576 179.727 104.064 179.727 99.7323V69.9258Z" fill="#00B5E2"/>
<path d="M205.894 24.4317C205.894 20.0997 209.406 16.5879 213.738 16.5879H215.647C219.979 16.5879 223.491 20.0997 223.491 24.4317L223.491 99.7323C223.491 104.064 219.979 107.576 215.647 107.576H213.738C209.406 107.576 205.894 104.064 205.894 99.7323L205.894 24.4317Z" fill="#00B5E2"/>
<path d="M90.1474 14.8863V106H71.0963V14.8863H90.1474ZM30.9234 14.8863V106H11.8724V14.8863H30.9234ZM81.036 52.2981V67.6218H21.3979V52.2981H81.036Z" fill="white"/>
<path d="M319.633 82.3181C317.884 88.2082 315.123 93.1321 311.35 97.0895C307.577 101.047 303.113 103.992 297.959 105.925C292.805 107.858 287.145 108.824 280.979 108.824C271.959 108.824 264.136 106.937 257.51 103.164C250.976 99.3904 245.914 94.0064 242.324 87.0118C238.827 80.0172 237.078 71.6421 237.078 61.8865C237.078 52.1309 238.827 43.7558 242.324 36.7612C245.914 29.7666 250.976 24.3826 257.51 20.6092C264.136 16.8358 271.867 14.9491 280.703 14.9491C286.961 14.9491 292.621 15.8235 297.683 17.5721C302.745 19.2287 307.024 21.8057 310.522 25.303C314.111 28.8003 316.734 33.2179 318.391 38.5559L301.134 45.8726C299.57 40.3505 297.177 36.4391 293.955 34.1382C290.734 31.7454 286.593 30.5489 281.531 30.5489C276.561 30.5489 272.189 31.7454 268.416 34.1382C264.735 36.5311 261.882 40.0744 259.857 44.7682C257.832 49.3699 256.82 55.076 256.82 61.8865C256.82 68.605 257.74 74.3111 259.581 79.0048C261.513 83.6986 264.321 87.2419 268.002 89.6348C271.683 92.0277 276.193 93.2241 281.531 93.2241C286.501 93.2241 290.78 91.8896 294.37 89.2206C298.051 86.5516 300.628 82.5021 302.1 77.0721L319.633 82.3181ZM414.421 16.3296L372.73 63.6812L371.211 62.1626L348.433 87.9782L345.534 70.3076L392.333 16.3296H414.421ZM354.921 16.3296V107.443H335.87V16.3296H354.921ZM377.976 47.8053L415.526 107.443H393.714L363.342 58.4352L377.976 47.8053Z" fill="white"/>
</svg>
