<svg width="434" height="138" viewBox="0 0 434 138" fill="none" xmlns="http://www.w3.org/2000/svg">
<path d="M132.404 76.2701C132.404 71.9565 128.593 68.4597 123.891 68.4597H121.819C117.118 68.4597 113.307 71.9565 113.307 76.2701V105.95C113.307 110.263 117.118 113.76 121.819 113.76H123.891C128.593 113.76 132.404 110.263 132.404 105.95V76.2701ZM151.994 23.1592C156.695 23.1592 160.507 26.656 160.507 30.9696V105.95C160.507 110.263 156.695 113.76 151.994 113.76H149.922C145.221 113.76 141.409 110.263 141.409 105.95V30.9696C141.409 26.656 145.221 23.1592 149.922 23.1592H151.994ZM179.941 23.1592C184.643 23.1592 188.454 26.656 188.454 30.9696V60.6492C188.454 64.9628 184.643 68.4597 179.941 68.4597H178.025C173.323 68.4597 169.512 64.9628 169.512 60.6492V30.9696C169.512 26.656 173.323 23.1592 178.025 23.1592H179.941Z" fill="#00B5E2"/>
<path d="M197.213 76.2701C197.213 71.9565 201.025 68.4597 205.726 68.4597H207.798C212.499 68.4597 216.311 71.9565 216.311 76.2701V105.95C216.311 110.263 212.499 113.76 207.798 113.76H205.726C201.025 113.76 197.213 110.263 197.213 105.95V76.2701Z" fill="#00B5E2"/>
<path d="M225.611 30.9696C225.611 26.656 229.422 23.1592 234.124 23.1592H236.196C240.897 23.1592 244.708 26.656 244.708 30.9696L244.709 105.95C244.709 110.263 240.897 113.76 236.196 113.76H234.124C229.422 113.76 225.611 110.263 225.611 105.95L225.611 30.9696Z" fill="#00B5E2"/>
<path d="M87.0385 26.7812V114.127H68.7753V26.7812H87.0385ZM30.2637 26.7812V114.127H12.0006V26.7812H30.2637ZM78.3039 62.6459V77.3359H21.1322V62.6459H78.3039Z" fill="#112148"/>
<path d="M337.155 89.9138C335.478 95.5603 332.831 100.281 329.214 104.074C325.597 107.868 321.318 110.691 316.377 112.544C311.436 114.397 306.01 115.323 300.099 115.323C291.453 115.323 283.953 113.515 277.601 109.897C271.337 106.28 266.484 101.119 263.043 94.4134C259.69 87.7081 258.014 79.6793 258.014 70.3271C258.014 60.975 259.69 52.9462 263.043 46.2409C266.484 39.5356 271.337 34.3742 277.601 30.7569C283.953 27.1395 291.364 25.3309 299.834 25.3309C305.834 25.3309 311.26 26.169 316.112 27.8454C320.965 29.4335 325.067 31.9038 328.42 35.2565C331.861 38.6092 334.375 42.8441 335.964 47.9613L319.421 54.9755C317.921 49.6818 315.627 45.9321 312.539 43.7264C309.451 41.4325 305.481 40.2855 300.628 40.2855C295.864 40.2855 291.673 41.4325 288.056 43.7264C284.527 46.0203 281.792 49.4171 279.851 53.9167C277.91 58.3281 276.939 63.7983 276.939 70.3271C276.939 76.7678 277.821 82.2379 279.586 86.7375C281.439 91.2372 284.13 94.634 287.659 96.9279C291.188 99.2218 295.511 100.369 300.628 100.369C305.393 100.369 309.495 99.0895 312.936 96.5309C316.465 93.9722 318.936 90.0902 320.347 84.8848L337.155 89.9138ZM428.023 26.6543L388.056 72.0476L386.6 70.5918L364.763 95.3398L361.984 78.4L406.848 26.6543H428.023ZM370.984 26.6543V114H352.72V26.6543H370.984ZM393.085 56.8283L429.082 114H408.172L379.056 67.0186L393.085 56.8283Z" fill="#112148"/>
</svg>
