<svg width="201" height="202" viewBox="0 0 201 202" fill="none" xmlns="http://www.w3.org/2000/svg">
<g id="Logos/pytorch-original">
<path id="Vector" d="M157.19 60.2133L142.744 74.6602C166.455 98.3719 166.455 136.53 142.744 159.928C119.032 183.64 80.8732 183.64 57.4756 159.928C33.7639 136.216 33.7639 98.0578 57.4756 74.6602L95.1631 36.9727L100.502 31.6336V3.21094L43.6568 60.0563C12.0936 91.6195 12.0936 142.655 43.6568 174.375C75.2201 206.095 126.255 205.938 157.347 174.375C188.911 142.655 188.911 91.9336 157.19 60.2133Z" fill="#EE4C2C"/>
<path id="Vector_2" d="M139.395 46.3824C139.502 40.5729 134.88 35.7762 129.071 35.6686C123.261 35.561 118.465 40.1833 118.357 45.9928C118.249 51.8022 122.872 56.5989 128.681 56.7065C134.491 56.8141 139.287 52.1918 139.395 46.3824Z" fill="#EE4C2C"/>
</g>
</svg>
