<svg width="674" height="363" viewBox="0 0 674 363" fill="none" xmlns="http://www.w3.org/2000/svg">
<g filter="url(#filter0_f_1060_5017)">
<rect x="205" y="328.127" width="3" height="27.0084" rx="1.5" fill="#00B5E2"/>
<rect x="607" y="144.651" width="3" height="60" rx="1.5" transform="rotate(-90 607 144.651)" fill="#00B5E2"/>
<rect x="364" y="49.6221" width="3" height="68" rx="1.5" transform="rotate(-90 364 49.6221)" fill="#00B5E2"/>
<rect x="316.008" y="120.809" width="3" height="74.9932" rx="1.5" transform="rotate(-90 316.008 120.809)" fill="#00B5E2"/>
<rect x="294" y="150.653" width="3" height="81" rx="1.5" transform="rotate(-90 294 150.653)" fill="#00B5E2"/>
<rect x="393" y="178.662" width="3" height="54" rx="1.5" transform="rotate(-90 393 178.662)" fill="#00B5E2"/>
<rect x="206" y="330.71" width="3" height="263" rx="1.5" transform="rotate(-90 206 330.71)" fill="#00B5E2"/>
<rect x="8" y="312.704" width="3" height="439" rx="1.5" transform="rotate(-90 8 312.704)" fill="#00B5E2"/>
<rect x="380" y="84.6328" width="3" height="31" rx="1.5" transform="rotate(-90 380 84.6328)" fill="#00B5E2"/>
<rect x="475" y="26.6152" width="3" height="48" rx="1.5" transform="rotate(-90 475 26.6152)" fill="#00B5E2"/>
<rect width="3.00034" height="55.3557" rx="1.50017" transform="matrix(0.800783 -0.598954 0.598714 0.800963 519.609 24.8906)" fill="#00B5E2"/>
<rect x="374" y="10.6104" width="3" height="58" rx="1.5" transform="rotate(-90 374 10.6104)" fill="#00B5E2"/>
<rect x="552" y="68.6279" width="3" height="58" rx="1.5" transform="rotate(-90 552 68.6279)" fill="#00B5E2"/>
<rect width="3.00034" height="18.1408" rx="1.50017" transform="matrix(0.800783 -0.598954 0.598714 0.800963 428.59 8.85645)" fill="#00B5E2"/>
<rect width="3.00034" height="36.5746" rx="1.50017" transform="matrix(0.800783 -0.598954 0.598714 0.800963 372 149.45)" fill="#00B5E2"/>
<rect width="3.00035" height="19.7225" rx="1.50018" transform="matrix(0.79048 -0.612488 0.612249 0.790665 493 76.4678)" fill="#00B5E2"/>
<rect width="3.00034" height="51.1268" rx="1.50017" transform="matrix(0.796682 -0.604399 0.604159 0.796864 527.195 74.2998)" fill="#00B5E2"/>
<rect width="3.00035" height="71.6962" rx="1.50018" transform="matrix(0.78968 -0.613519 0.61328 0.789866 428.766 47.8828)" fill="#00B5E2"/>
<rect width="3.00037" height="75.9258" rx="1.50018" transform="matrix(0.778927 -0.627114 0.626876 0.779119 407.523 82.9238)" fill="#00B5E2"/>
<rect width="3.00034" height="28.1601" rx="1.50017" transform="matrix(0.798725 -0.601696 0.601456 0.798906 388 119.448)" fill="#00B5E2"/>
<rect width="3.00064" height="22.924" rx="1.50032" transform="matrix(0.566839 0.823829 -0.823663 0.56708 505.883 147.652)" fill="#00B5E2"/>
<rect width="3.00063" height="114.476" rx="1.50031" transform="matrix(0.577901 0.816107 -0.815937 0.578142 558.926 149.573)" fill="#00B5E2"/>
<rect width="3.00066" height="28.3832" rx="1.50033" transform="matrix(-0.54261 0.839985 -0.83983 -0.54285 296.898 148.69)" fill="#00B5E2"/>
<rect x="375.871" y="7.02637" width="3.00069" height="28.806" rx="1.50034" transform="rotate(58.7083 375.871 7.02637)" fill="#00B5E2"/>
<rect width="3.00062" height="39.0819" rx="1.50031" transform="matrix(0.578049 0.816002 -0.815831 0.57829 303.395 59.0303)" fill="#00B5E2"/>
<rect width="3.00063" height="62.8761" rx="1.50032" transform="matrix(0.570709 0.821153 -0.820985 0.57095 365.562 46.04)" fill="#00B5E2"/>
<rect x="607" y="65.627" width="3" height="78.442" rx="1.5" fill="#00B5E2"/>
<rect x="504" y="88.6348" width="3" height="62.0194" rx="1.5" fill="#00B5E2"/>
<rect x="557" y="111.642" width="3" height="41.0128" rx="1.5" fill="#00B5E2"/>
<rect x="272" y="80.6318" width="3" height="56.0175" rx="1.5" fill="#00B5E2"/>
<rect x="454" y="138.65" width="3" height="19.0059" rx="1.5" fill="#00B5E2"/>
<rect x="444" y="175.661" width="3" height="41.0128" rx="1.5" fill="#00B5E2"/>
<rect x="466" y="230.679" width="3" height="100.031" rx="1.5" fill="#00B5E2"/>
<rect x="488" y="222.094" width="3" height="66.0206" rx="1.5" fill="#00B5E2"/>
<rect x="444" y="217.092" width="3" height="93.0291" rx="1.5" fill="#00B5E2"/>
<rect x="466" y="214.674" width="3" height="48.015" rx="1.5" fill="#00B5E2"/>
<path d="M308.608 62.5572C308.608 58.6371 305.431 55.4601 301.513 55.4601C297.596 55.4601 294.419 58.6371 294.419 62.5572C294.419 66.4773 297.596 69.6543 301.513 69.6543C305.431 69.6543 308.608 66.4773 308.608 62.5572Z" fill="white" stroke="#00B5E2" stroke-width="2.83779"/>
<path d="M452.608 212.604C452.608 208.684 449.431 205.507 445.513 205.507C441.596 205.507 438.419 208.684 438.419 212.604C438.419 216.524 441.596 219.701 445.513 219.701C449.431 219.701 452.608 216.524 452.608 212.604Z" fill="white" stroke="#00B5E2" stroke-width="2.83779"/>
<path d="M445.608 21.5445C445.608 17.6244 442.431 14.4474 438.513 14.4474C434.596 14.4474 431.419 17.6244 431.419 21.5445C431.419 25.4646 434.596 28.6417 438.513 28.6417C442.431 28.6417 445.608 25.4646 445.608 21.5445Z" fill="white" stroke="#00B5E2" stroke-width="2.83779"/>
<path d="M360.608 24.5455C360.608 20.6254 357.431 17.4483 353.513 17.4483C349.596 17.4483 346.419 20.6254 346.419 24.5455C346.419 28.4655 349.596 31.6426 353.513 31.6426C357.431 31.6426 360.608 28.4655 360.608 24.5455Z" fill="white" stroke="#00B5E2" stroke-width="2.83779"/>
<path d="M483.608 25.5455C483.608 21.6254 480.431 18.4483 476.513 18.4483C472.596 18.4483 469.419 21.6254 469.419 25.5455C469.419 29.4655 472.596 32.6426 476.513 32.6426C480.431 32.6426 483.608 29.4655 483.608 25.5455Z" fill="white" stroke="#00B5E2" stroke-width="2.83779"/>
<path d="M474.608 260.619C474.608 256.699 471.431 253.522 467.513 253.522C463.596 253.522 460.419 256.699 460.419 260.619C460.419 264.539 463.596 267.716 467.513 267.716C471.431 267.716 474.608 264.539 474.608 260.619Z" fill="white" stroke="#00B5E2" stroke-width="2.83779"/>
<path d="M497.608 230.61C497.608 226.69 494.431 223.513 490.513 223.513C486.596 223.513 483.419 226.69 483.419 230.61C483.419 234.53 486.596 237.707 490.513 237.707C494.431 237.707 497.608 234.53 497.608 230.61Z" fill="white" stroke="#00B5E2" stroke-width="2.83779"/>
</g>
<rect x="205" y="328.127" width="3" height="27.0084" rx="1.5" fill="#00B5E2"/>
<rect x="364" y="49.6221" width="3" height="68" rx="1.5" transform="rotate(-90 364 49.6221)" fill="#00B5E2"/>
<rect x="316.008" y="120.809" width="3" height="74.9932" rx="1.5" transform="rotate(-90 316.008 120.809)" fill="#00B5E2"/>
<rect x="206" y="331.128" width="3" height="263" rx="1.5" transform="rotate(-90 206 331.128)" fill="#00B5E2"/>
<rect x="8" y="313.122" width="3" height="439" rx="1.5" transform="rotate(-90 8 313.122)" fill="#00B5E2"/>
<rect x="380" y="84.6328" width="3" height="31" rx="1.5" transform="rotate(-90 380 84.6328)" fill="#00B5E2"/>
<rect width="3.00035" height="19.7225" rx="1.50018" transform="matrix(0.79048 -0.612488 0.612249 0.790665 493 76.4678)" fill="#00B5E2"/>
<rect width="3.00035" height="71.6962" rx="1.50018" transform="matrix(0.78968 -0.613519 0.61328 0.789866 428.766 47.8828)" fill="#00B5E2"/>
<rect width="3.00037" height="75.9258" rx="1.50018" transform="matrix(0.778927 -0.627114 0.626876 0.779119 407.523 82.9238)" fill="#00B5E2"/>
<rect width="3.00034" height="28.1601" rx="1.50017" transform="matrix(0.798725 -0.601696 0.601456 0.798906 388 119.448)" fill="#00B5E2"/>
<rect width="3.00064" height="22.924" rx="1.50032" transform="matrix(0.566839 0.823829 -0.823663 0.56708 505.883 147.652)" fill="#00B5E2"/>
<rect x="374" y="10.6104" width="3" height="58" rx="1.5" transform="rotate(-90 374 10.6104)" fill="#00B5E2"/>
<rect width="3.00034" height="18.1408" rx="1.50017" transform="matrix(0.800783 -0.598954 0.598714 0.800963 428.59 8.85645)" fill="#00B5E2"/>
<rect width="3.00069" height="28.806" rx="1.50034" transform="matrix(0.519277 0.854606 -0.854462 0.519514 375.871 7.02637)" fill="#00B5E2"/>
<rect width="3.00063" height="62.8761" rx="1.50032" transform="matrix(0.570709 0.821153 -0.820985 0.57095 365.562 46.04)" fill="#00B5E2"/>
<rect x="504" y="88.6348" width="3" height="62.0194" rx="1.5" fill="#00B5E2"/>
<rect x="454" y="138.65" width="3" height="19.0059" rx="1.5" fill="#00B5E2"/>
<rect x="294" y="150.653" width="3" height="81" rx="1.5" transform="rotate(-90 294 150.653)" fill="#00B5E2"/>
<rect x="393" y="178.662" width="3" height="54" rx="1.5" transform="rotate(-90 393 178.662)" fill="#00B5E2"/>
<rect width="3.00034" height="36.5746" rx="1.50017" transform="matrix(0.800783 -0.598954 0.598714 0.800963 372 149.449)" fill="#00B5E2"/>
<rect width="3.00066" height="28.3832" rx="1.50033" transform="matrix(-0.54261 0.839985 -0.83983 -0.54285 296.898 148.689)" fill="#00B5E2"/>
<rect x="303.396" y="59.0293" width="3.00062" height="39.0819" rx="1.50031" transform="rotate(54.6781 303.396 59.0293)" fill="#00B5E2"/>
<rect x="272" y="80.6309" width="3" height="56.0175" rx="1.5" fill="#00B5E2"/>
<rect x="444" y="175.661" width="3" height="41.0128" rx="1.5" fill="#00B5E2"/>
<rect x="466" y="230.679" width="3" height="100.031" rx="1.5" fill="#00B5E2"/>
<rect x="488" y="222.094" width="3" height="66.0206" rx="1.5" fill="#00B5E2"/>
<rect x="444" y="218.092" width="3" height="93.0291" rx="1.5" fill="#00B5E2"/>
<rect width="3.00034" height="51.1268" rx="1.50017" transform="matrix(0.796682 -0.604399 0.604159 0.796864 527.195 74.2998)" fill="#00B5E2"/>
<rect width="3.00063" height="114.476" rx="1.50031" transform="matrix(0.577901 0.816107 -0.815937 0.578142 558.93 149.573)" fill="#00B5E2"/>
<rect x="557" y="111.642" width="3" height="41.0128" rx="1.5" fill="#00B5E2"/>
<rect x="466" y="214.674" width="3" height="48.015" rx="1.5" fill="#00B5E2"/>
<g filter="url(#filter1_f_1060_5017)">
<rect x="7" y="310.121" width="3" height="45.0141" rx="1.5" fill="#00B5E2"/>
</g>
<rect x="7" y="310.121" width="3" height="45.0141" rx="1.5" fill="#00B5E2"/>
<rect x="607" y="144.651" width="3" height="60" rx="1.5" transform="rotate(-90 607 144.651)" fill="#00B5E2"/>
<rect x="475" y="26.6152" width="3" height="48" rx="1.5" transform="rotate(-90 475 26.6152)" fill="#00B5E2"/>
<rect width="3.00034" height="55.3557" rx="1.50017" transform="matrix(0.800783 -0.598954 0.598714 0.800963 519.609 24.8906)" fill="#00B5E2"/>
<rect x="552" y="68.6279" width="3" height="58" rx="1.5" transform="rotate(-90 552 68.6279)" fill="#00B5E2"/>
<rect x="607" y="65.627" width="3" height="78.442" rx="1.5" fill="#00B5E2"/>
<path d="M483.608 25.5455C483.608 21.6254 480.431 18.4483 476.513 18.4483C472.596 18.4483 469.419 21.6254 469.419 25.5455C469.419 29.4655 472.596 32.6426 476.513 32.6426C480.431 32.6426 483.608 29.4655 483.608 25.5455Z" fill="white" stroke="#00B5E2" stroke-width="2.83779"/>
<g filter="url(#filter2_f_1060_5017)">
<ellipse cx="8.51338" cy="8.51604" rx="8.51338" ry="8.51604" transform="matrix(1 0 0 -1 293 71.0732)" fill="white"/>
<path d="M308.608 62.5572C308.608 58.6371 305.431 55.4601 301.513 55.4601C297.596 55.4601 294.419 58.6371 294.419 62.5572C294.419 66.4773 297.596 69.6543 301.513 69.6543C305.431 69.6543 308.608 66.4773 308.608 62.5572Z" stroke="#00B5E2" stroke-width="2.83779"/>
</g>
<path d="M308.608 62.5572C308.608 58.6371 305.431 55.4601 301.513 55.4601C297.596 55.4601 294.419 58.6371 294.419 62.5572C294.419 66.4773 297.596 69.6543 301.513 69.6543C305.431 69.6543 308.608 66.4773 308.608 62.5572Z" fill="white" stroke="#00B5E2" stroke-width="2.83779"/>
<g filter="url(#filter3_f_1060_5017)">
<ellipse cx="8.51338" cy="8.51604" rx="8.51338" ry="8.51604" transform="matrix(1 0 0 -1 437 221.12)" fill="white"/>
<path d="M452.608 212.604C452.608 208.684 449.431 205.507 445.513 205.507C441.596 205.507 438.419 208.684 438.419 212.604C438.419 216.524 441.596 219.701 445.513 219.701C449.431 219.701 452.608 216.524 452.608 212.604Z" stroke="#00B5E2" stroke-width="2.83779"/>
</g>
<path d="M452.608 212.604C452.608 208.684 449.431 205.507 445.513 205.507C441.596 205.507 438.419 208.684 438.419 212.604C438.419 216.524 441.596 219.701 445.513 219.701C449.431 219.701 452.608 216.524 452.608 212.604Z" fill="white" stroke="#00B5E2" stroke-width="2.83779"/>
<g filter="url(#filter4_f_1060_5017)">
<ellipse cx="8.51338" cy="8.51604" rx="8.51338" ry="8.51604" transform="matrix(1 0 0 -1 430 30.0605)" fill="white"/>
<path d="M445.608 21.5445C445.608 17.6244 442.431 14.4474 438.513 14.4474C434.596 14.4474 431.419 17.6244 431.419 21.5445C431.419 25.4646 434.596 28.6417 438.513 28.6417C442.431 28.6417 445.608 25.4646 445.608 21.5445Z" stroke="#00B5E2" stroke-width="2.83779"/>
</g>
<path d="M445.608 21.5445C445.608 17.6244 442.431 14.4474 438.513 14.4474C434.596 14.4474 431.419 17.6244 431.419 21.5445C431.419 25.4646 434.596 28.6417 438.513 28.6417C442.431 28.6417 445.608 25.4646 445.608 21.5445Z" fill="white" stroke="#00B5E2" stroke-width="2.83779"/>
<g filter="url(#filter5_f_1060_5017)">
<ellipse cx="8.51338" cy="8.51604" rx="8.51338" ry="8.51604" transform="matrix(1 0 0 -1 345 33.0615)" fill="white"/>
<path d="M360.608 24.5455C360.608 20.6254 357.431 17.4483 353.513 17.4483C349.596 17.4483 346.419 20.6254 346.419 24.5455C346.419 28.4655 349.596 31.6426 353.513 31.6426C357.431 31.6426 360.608 28.4655 360.608 24.5455Z" stroke="#00B5E2" stroke-width="2.83779"/>
</g>
<path d="M360.608 24.5455C360.608 20.6254 357.431 17.4483 353.513 17.4483C349.596 17.4483 346.419 20.6254 346.419 24.5455C346.419 28.4655 349.596 31.6426 353.513 31.6426C357.431 31.6426 360.608 28.4655 360.608 24.5455Z" fill="white" stroke="#00B5E2" stroke-width="2.83779"/>
<g filter="url(#filter6_f_1060_5017)">
<ellipse cx="8.51338" cy="8.51604" rx="8.51338" ry="8.51604" transform="matrix(1 0 0 -1 468 34.0615)" fill="white"/>
<path d="M483.608 25.5455C483.608 21.6254 480.431 18.4483 476.513 18.4483C472.596 18.4483 469.419 21.6254 469.419 25.5455C469.419 29.4655 472.596 32.6426 476.513 32.6426C480.431 32.6426 483.608 29.4655 483.608 25.5455Z" stroke="#00B5E2" stroke-width="2.83779"/>
</g>
<g filter="url(#filter7_f_1060_5017)">
<ellipse cx="8.51338" cy="8.51604" rx="8.51338" ry="8.51604" transform="matrix(1 0 0 -1 459 269.135)" fill="white"/>
<path d="M474.608 260.619C474.608 256.699 471.431 253.522 467.513 253.522C463.596 253.522 460.419 256.699 460.419 260.619C460.419 264.539 463.596 267.716 467.513 267.716C471.431 267.716 474.608 264.539 474.608 260.619Z" stroke="#00B5E2" stroke-width="2.83779"/>
</g>
<g filter="url(#filter8_b_1060_5017)">
<ellipse cx="8.51338" cy="8.51604" rx="8.51338" ry="8.51604" transform="matrix(1 0 0 -1 459 269.135)" fill="white"/>
<path d="M474.608 260.619C474.608 256.699 471.431 253.522 467.513 253.522C463.596 253.522 460.419 256.699 460.419 260.619C460.419 264.539 463.596 267.716 467.513 267.716C471.431 267.716 474.608 264.539 474.608 260.619Z" stroke="#00B5E2" stroke-width="2.83779"/>
</g>
<g filter="url(#filter9_f_1060_5017)">
<ellipse cx="8.51338" cy="8.51604" rx="8.51338" ry="8.51604" transform="matrix(1 0 0 -1 482 239.126)" fill="white"/>
<path d="M497.608 230.61C497.608 226.69 494.431 223.513 490.513 223.513C486.596 223.513 483.419 226.69 483.419 230.61C483.419 234.53 486.596 237.707 490.513 237.707C494.431 237.707 497.608 234.53 497.608 230.61Z" stroke="#00B5E2" stroke-width="2.83779"/>
</g>
<path d="M496.608 230.61C496.608 226.69 493.431 223.513 489.513 223.513C485.596 223.513 482.419 226.69 482.419 230.61C482.419 234.53 485.596 237.707 489.513 237.707C493.431 237.707 496.608 234.53 496.608 230.61Z" fill="white" stroke="#00B5E2" stroke-width="2.83779"/>
<path d="M483.608 24.5455C483.608 20.6254 480.431 17.4483 476.513 17.4483C472.596 17.4483 469.419 20.6254 469.419 24.5455C469.419 28.4655 472.596 31.6426 476.513 31.6426C480.431 31.6426 483.608 28.4655 483.608 24.5455Z" fill="white" stroke="#00B5E2" stroke-width="2.83779"/>
<defs>
<filter id="filter0_f_1060_5017" x="1" y="0.586914" width="673" height="361.549" filterUnits="userSpaceOnUse" color-interpolation-filters="sRGB">
<feFlood flood-opacity="0" result="BackgroundImageFix"/>
<feBlend mode="normal" in="SourceGraphic" in2="BackgroundImageFix" result="shape"/>
<feGaussianBlur stdDeviation="3.5" result="effect1_foregroundBlur_1060_5017"/>
</filter>
<filter id="filter1_f_1060_5017" x="0" y="303.121" width="17" height="59.0137" filterUnits="userSpaceOnUse" color-interpolation-filters="sRGB">
<feFlood flood-opacity="0" result="BackgroundImageFix"/>
<feBlend mode="normal" in="SourceGraphic" in2="BackgroundImageFix" result="shape"/>
<feGaussianBlur stdDeviation="3.5" result="effect1_foregroundBlur_1060_5017"/>
</filter>
<filter id="filter2_f_1060_5017" x="287" y="48.041" width="29.0273" height="29.0322" filterUnits="userSpaceOnUse" color-interpolation-filters="sRGB">
<feFlood flood-opacity="0" result="BackgroundImageFix"/>
<feBlend mode="normal" in="SourceGraphic" in2="BackgroundImageFix" result="shape"/>
<feGaussianBlur stdDeviation="3" result="effect1_foregroundBlur_1060_5017"/>
</filter>
<filter id="filter3_f_1060_5017" x="431" y="198.088" width="29.0273" height="29.0322" filterUnits="userSpaceOnUse" color-interpolation-filters="sRGB">
<feFlood flood-opacity="0" result="BackgroundImageFix"/>
<feBlend mode="normal" in="SourceGraphic" in2="BackgroundImageFix" result="shape"/>
<feGaussianBlur stdDeviation="3" result="effect1_foregroundBlur_1060_5017"/>
</filter>
<filter id="filter4_f_1060_5017" x="424" y="7.02832" width="29.0273" height="29.0322" filterUnits="userSpaceOnUse" color-interpolation-filters="sRGB">
<feFlood flood-opacity="0" result="BackgroundImageFix"/>
<feBlend mode="normal" in="SourceGraphic" in2="BackgroundImageFix" result="shape"/>
<feGaussianBlur stdDeviation="3" result="effect1_foregroundBlur_1060_5017"/>
</filter>
<filter id="filter5_f_1060_5017" x="339" y="10.0293" width="29.0273" height="29.0322" filterUnits="userSpaceOnUse" color-interpolation-filters="sRGB">
<feFlood flood-opacity="0" result="BackgroundImageFix"/>
<feBlend mode="normal" in="SourceGraphic" in2="BackgroundImageFix" result="shape"/>
<feGaussianBlur stdDeviation="3" result="effect1_foregroundBlur_1060_5017"/>
</filter>
<filter id="filter6_f_1060_5017" x="462" y="11.0293" width="29.0273" height="29.0322" filterUnits="userSpaceOnUse" color-interpolation-filters="sRGB">
<feFlood flood-opacity="0" result="BackgroundImageFix"/>
<feBlend mode="normal" in="SourceGraphic" in2="BackgroundImageFix" result="shape"/>
<feGaussianBlur stdDeviation="3" result="effect1_foregroundBlur_1060_5017"/>
</filter>
<filter id="filter7_f_1060_5017" x="453" y="246.103" width="29.0273" height="29.0322" filterUnits="userSpaceOnUse" color-interpolation-filters="sRGB">
<feFlood flood-opacity="0" result="BackgroundImageFix"/>
<feBlend mode="normal" in="SourceGraphic" in2="BackgroundImageFix" result="shape"/>
<feGaussianBlur stdDeviation="3" result="effect1_foregroundBlur_1060_5017"/>
</filter>
<filter id="filter8_b_1060_5017" x="455" y="248.103" width="25.0273" height="25.0322" filterUnits="userSpaceOnUse" color-interpolation-filters="sRGB">
<feFlood flood-opacity="0" result="BackgroundImageFix"/>
<feGaussianBlur in="BackgroundImageFix" stdDeviation="2"/>
<feComposite in2="SourceAlpha" operator="in" result="effect1_backgroundBlur_1060_5017"/>
<feBlend mode="normal" in="SourceGraphic" in2="effect1_backgroundBlur_1060_5017" result="shape"/>
</filter>
<filter id="filter9_f_1060_5017" x="476" y="216.094" width="29.0273" height="29.0322" filterUnits="userSpaceOnUse" color-interpolation-filters="sRGB">
<feFlood flood-opacity="0" result="BackgroundImageFix"/>
<feBlend mode="normal" in="SourceGraphic" in2="BackgroundImageFix" result="shape"/>
<feGaussianBlur stdDeviation="3" result="effect1_foregroundBlur_1060_5017"/>
</filter>
</defs>
</svg>
